<svg width="24" height="24" viewBox="0 0 24 24" fill="none" xmlns="http://www.w3.org/2000/svg">
<path fill-rule="evenodd" clip-rule="evenodd" d="M9.68957 19.4881C9.68957 21.1976 8.25868 22.5833 6.49359 22.5833C4.7285 22.5833 3.2976 21.1976 3.2976 19.4881C3.2976 17.7786 4.7285 16.3929 6.49359 16.3929C8.25868 16.3929 9.68957 17.7786 9.68957 19.4881ZM7.55892 19.4881C7.55892 20.0579 7.08195 20.5198 6.49359 20.5198C5.90523 20.5198 5.42826 20.0579 5.42826 19.4881C5.42826 18.9183 5.90523 18.4564 6.49359 18.4564C7.08195 18.4564 7.55892 18.9183 7.55892 19.4881Z" fill="#777E90"/>
<path fill-rule="evenodd" clip-rule="evenodd" d="M20.3429 19.4881C20.3429 21.1976 18.912 22.5833 17.1469 22.5833C15.3817 22.5833 13.9509 21.1976 13.9509 19.4881C13.9509 17.7786 15.3817 16.3929 17.1469 16.3929C18.912 16.3929 20.3429 17.7786 20.3429 19.4881ZM18.2122 19.4881C18.2122 20.0579 17.7353 20.5198 17.1469 20.5198C16.5585 20.5198 16.0815 20.0579 16.0815 19.4881C16.0815 18.9183 16.5585 18.4564 17.1469 18.4564C17.7353 18.4564 18.2122 18.9183 18.2122 19.4881Z" fill="#777E90"/>
<path fill-rule="evenodd" clip-rule="evenodd" d="M1.27939 1.48721C1.54252 0.977553 2.18243 0.770979 2.70868 1.02581L3.77775 1.54348C4.76771 2.02285 5.4311 2.96416 5.53132 4.03169L5.58228 4.57465C5.60722 4.84036 5.83726 5.04381 6.11275 5.04381H20.1676C22.0271 5.04381 23.3143 6.84257 22.6613 8.5288L20.7935 13.3527C20.3257 14.5608 19.1332 15.3612 17.801 15.3612H7.37397C5.721 15.3612 4.34077 14.1404 4.19111 12.5462L3.40941 4.2185C3.376 3.86266 3.15487 3.54889 2.82488 3.3891L1.75582 2.87142C1.22957 2.61659 1.01627 1.99686 1.27939 1.48721ZM6.4033 7.10727C6.09008 7.10727 5.84447 7.36774 5.87282 7.66985L6.31302 12.3593C6.36291 12.8908 6.82299 13.2977 7.37397 13.2977H17.801C18.245 13.2977 18.6425 13.0309 18.7984 12.6282L20.6663 7.80428C20.7969 7.46703 20.5395 7.10727 20.1676 7.10727H6.4033Z" fill="#777E90"/>
</svg>
