<svg width="24" height="24" viewBox="0 0 24 24" fill="none" xmlns="http://www.w3.org/2000/svg">
<path d="M10.1241 19.332C9.79283 19.0396 9.28728 19.0711 8.9949 19.4024C8.70252 19.7336 8.73403 20.2392 9.06528 20.5316C9.84688 21.2215 10.8754 21.6409 12 21.6409C13.1246 21.6409 14.1531 21.2215 14.9347 20.5316C15.2659 20.2392 15.2974 19.7336 15.005 19.4024C14.7126 19.0711 14.2071 19.0396 13.8758 19.332C13.3754 19.7738 12.7199 20.0409 12 20.0409C11.2801 20.0409 10.6246 19.7738 10.1241 19.332Z" fill="#777E90"/>
<path fill-rule="evenodd" clip-rule="evenodd" d="M12 1.85907C10.3412 1.85907 8.75031 2.51803 7.57735 3.69098C6.40439 4.86394 5.74544 6.45481 5.74544 8.11362C5.74544 9.36528 5.59775 10.4206 5.36773 11.306C5.10759 12.3073 4.74213 13.0913 4.3659 13.6959L4.36525 13.6969L4.35573 13.7122C4.03009 14.2355 3.77423 14.6468 3.60214 14.9454C3.51593 15.095 3.43904 15.2362 3.38277 15.3602C3.35468 15.4221 3.32418 15.4959 3.30061 15.5751C3.28085 15.6414 3.2449 15.7781 3.25839 15.9431C3.26816 16.0625 3.29195 16.2565 3.40253 16.4555C3.5131 16.6545 3.66511 16.7771 3.76127 16.8485C3.96664 17.0007 4.20543 17.0362 4.29041 17.0488L4.29243 17.0491C4.42054 17.068 4.56795 17.0777 4.72017 17.0836C5.02279 17.0954 5.44299 17.0954 5.9698 17.0954H18.0302C18.557 17.0954 18.9772 17.0954 19.2798 17.0836C19.432 17.0777 19.5794 17.068 19.7075 17.0491L19.7096 17.0488C19.7945 17.0362 20.0331 17.0009 20.2385 16.8486C20.4062 16.7239 20.7416 16.3683 20.7416 15.9431C20.7551 15.7782 20.7192 15.6416 20.6994 15.5753C20.6759 15.4961 20.6454 15.4222 20.6173 15.3604C20.561 15.2364 20.4842 15.0952 20.3981 14.9457C20.2261 14.6473 19.9704 14.2363 19.645 13.7134L19.6355 13.6982L19.6341 13.6958C18.9251 12.5567 18.2545 10.7809 18.2545 8.11362C18.2545 6.45482 17.5956 4.86393 16.4226 3.69096C15.2496 2.51803 13.6588 1.85907 12 1.85907ZM8.70872 4.82236C7.83582 5.69525 7.34544 6.87915 7.34544 8.11362C7.34544 10.7231 6.76169 12.6445 6.02205 14.0259C5.92524 14.2067 5.82577 14.3782 5.72458 14.5408L5.72395 14.5418C5.47946 14.9348 5.28516 15.2472 5.13713 15.4928C5.36465 15.4954 5.64552 15.4954 5.98985 15.4954H13.4234H18.0101C18.3545 15.4954 18.6353 15.4954 18.8629 15.4928C18.715 15.2474 18.5211 14.9358 18.277 14.5434L18.2757 14.5412C17.9815 14.0686 17.7019 13.5206 17.4602 12.8891C16.9834 11.6431 16.6545 10.0722 16.6545 8.11362C16.6545 6.87915 16.1642 5.69526 15.2913 4.82238C14.4183 3.94947 13.2344 3.45907 12 3.45907C10.7847 3.45907 9.61837 3.93436 8.74958 4.782C8.73589 4.79536 8.72227 4.80881 8.70872 4.82236Z" fill="#777E90"/>
</svg>
