<svg width="24" height="24" viewBox="0 0 24 24" fill="none" xmlns="http://www.w3.org/2000/svg">
<g clip-path="url(#clip0_1_5320)">
<circle cx="12" cy="12" r="5.1" stroke="#777E90" stroke-width="1.8"/>
<path d="M4.63713 4.38466C5.04392 3.97786 5.70347 3.97786 6.11027 4.38466L6.84684 5.12123C7.25363 5.52802 7.25363 6.18757 6.84684 6.59436C6.44004 7.00116 5.78049 7.00116 5.3737 6.59436L4.63713 5.8578C4.23033 5.451 4.23033 4.79145 4.63713 4.38466Z" fill="#777E90"/>
<path d="M1.58203 11.7501C1.58203 11.1748 2.0484 10.7085 2.6237 10.7085H3.66536C4.24066 10.7085 4.70703 11.1748 4.70703 11.7501C4.70703 12.3254 4.24066 12.7918 3.66536 12.7918H2.6237C2.0484 12.7918 1.58203 12.3254 1.58203 11.7501Z" fill="#777E90"/>
<path d="M5.3737 16.9061C5.78049 16.4993 6.44004 16.4993 6.84684 16.9061C7.25363 17.3129 7.25363 17.9725 6.84684 18.3793L6.11027 19.1158C5.70347 19.5226 5.04392 19.5226 4.63713 19.1158C4.23033 18.7091 4.23033 18.0495 4.63713 17.6427L5.3737 16.9061Z" fill="#777E90"/>
<path d="M11.9987 19.0415C12.574 19.0415 13.0404 19.5078 13.0404 20.0831V21.1248C13.0404 21.7001 12.574 22.1665 11.9987 22.1665C11.4234 22.1665 10.957 21.7001 10.957 21.1248V20.0831C10.957 19.5078 11.4234 19.0415 11.9987 19.0415Z" fill="#777E90"/>
<path d="M17.1528 18.3793C16.746 17.9725 16.746 17.3129 17.1528 16.9061C17.5595 16.4993 18.2191 16.4993 18.6259 16.9061L19.3625 17.6427C19.7693 18.0495 19.7693 18.7091 19.3625 19.1159C18.9557 19.5226 18.2961 19.5226 17.8893 19.1159L17.1528 18.3793Z" fill="#777E90"/>
<path d="M19.293 11.7501C19.293 11.1748 19.7593 10.7085 20.3346 10.7085H21.3763C21.9516 10.7085 22.418 11.1748 22.418 11.7501C22.418 12.3254 21.9516 12.7918 21.3763 12.7918H20.3346C19.7593 12.7918 19.293 12.3254 19.293 11.7501Z" fill="#777E90"/>
<path d="M19.3625 4.38466C19.7693 4.79145 19.7693 5.451 19.3625 5.8578L18.6259 6.59437C18.2191 7.00116 17.5595 7.00116 17.1528 6.59437C16.746 6.18757 16.746 5.52802 17.1528 5.12123L17.8893 4.38466C18.2961 3.97786 18.9557 3.97786 19.3625 4.38466Z" fill="#777E90"/>
<path d="M11.9987 1.33347C12.574 1.33347 13.0404 1.79984 13.0404 2.37513V3.4168C13.0404 3.9921 12.574 4.45847 11.9987 4.45847C11.4234 4.45847 10.957 3.9921 10.957 3.4168V2.37513C10.957 1.79984 11.4234 1.33347 11.9987 1.33347Z" fill="#777E90"/>
</g>
<defs>
<clipPath id="clip0_1_5320">
<rect width="24" height="24" fill="white"/>
</clipPath>
</defs>
</svg>
