<svg width="16" height="16" viewBox="0 0 16 16" fill="none" xmlns="http://www.w3.org/2000/svg">
<path d="M13.0827 3.17041C12.1479 2.74148 11.1454 2.42546 10.0973 2.24448C10.0782 2.24097 10.0591 2.24971 10.0493 2.26716C9.92035 2.49647 9.77758 2.7956 9.67758 3.03073C8.55028 2.86195 7.42875 2.86195 6.32455 3.03073C6.22453 2.79038 6.07655 2.49647 5.94704 2.26716C5.93721 2.25029 5.91815 2.24156 5.89905 2.24448C4.85152 2.42488 3.84909 2.74091 2.9137 3.17041C2.90561 3.1739 2.89866 3.17972 2.89406 3.18729C0.992648 6.02796 0.471773 8.7988 0.727297 11.5353C0.728453 11.5486 0.735969 11.5615 0.746375 11.5696C2.00087 12.4909 3.21607 13.0502 4.4087 13.4209C4.42778 13.4267 4.448 13.4197 4.46015 13.4041C4.74226 13.0188 4.99375 12.6125 5.20937 12.1854C5.22209 12.1603 5.20995 12.1306 5.18394 12.1207C4.78504 11.9695 4.40522 11.785 4.03986 11.5754C4.01096 11.5585 4.00865 11.5172 4.03523 11.4975C4.11212 11.4398 4.18903 11.3799 4.26244 11.3194C4.27573 11.3083 4.29423 11.306 4.30984 11.313C6.71015 12.4088 9.30875 12.4088 11.6807 11.313C11.6963 11.3054 11.7148 11.3077 11.7288 11.3187C11.8022 11.3793 11.879 11.4398 11.9565 11.4975C11.983 11.5172 11.9814 11.5585 11.9524 11.5754C11.587 11.789 11.2073 11.9695 10.8078 12.1202C10.7817 12.1301 10.7702 12.1603 10.7829 12.1854C11.0032 12.612 11.2547 13.0182 11.5316 13.4034C11.5431 13.4197 11.5639 13.4267 11.583 13.4209C12.7815 13.0502 13.9966 12.4909 15.2511 11.5696C15.2621 11.5615 15.269 11.5493 15.2702 11.5359C15.576 8.37219 14.758 5.62406 13.1017 3.18786C13.0977 3.17972 13.0907 3.1739 13.0827 3.17041ZM5.56781 9.86903C4.84516 9.86903 4.24971 9.2056 4.24971 8.39082C4.24971 7.57603 4.83362 6.91259 5.56781 6.91259C6.30779 6.91259 6.89747 7.58185 6.8859 8.39082C6.8859 9.2056 6.302 9.86903 5.56781 9.86903ZM10.4413 9.86903C9.71863 9.86903 9.12318 9.2056 9.12318 8.39082C9.12318 7.57603 9.70706 6.91259 10.4413 6.91259C11.1812 6.91259 11.7709 7.58185 11.7594 8.39082C11.7594 9.2056 11.1812 9.86903 10.4413 9.86903Z" fill="#777E90"/>
</svg>
