<svg width="24" height="25" viewBox="0 0 24 25" fill="none" xmlns="http://www.w3.org/2000/svg">
<path fill-rule="evenodd" clip-rule="evenodd" d="M12.9022 15.1703L20 17.18L18.2334 10.1724L16.0295 12.2385L12.4745 8.62216C12.3538 8.49939 12.1871 8.42999 12.0128 8.42999C11.8385 8.42999 11.6718 8.49939 11.5511 8.62216L8.9408 11.2775L5.10169 7.37216C4.8569 7.12315 4.45176 7.11508 4.19678 7.35413C3.9418 7.59317 3.93353 7.98882 4.17831 8.23783L8.47911 12.6128C8.5998 12.7356 8.76653 12.805 8.9408 12.805C9.11507 12.805 9.2818 12.7356 9.40249 12.6128L12.0128 9.95748L15.1061 13.1042L12.9022 15.1703Z" fill="#FE749B"/>
</svg>
