<svg width="16" height="16" viewBox="0 0 16 16" fill="none" xmlns="http://www.w3.org/2000/svg">
<g clip-path="url(#clip0_1_5515)">
<path fill-rule="evenodd" clip-rule="evenodd" d="M11.9711 0.352449C12.2857 0.0830183 12.7591 0.119644 13.0286 0.434254L15.6289 3.47057L15.7955 3.66518L15.8083 3.92109C15.9509 6.78346 16.0308 8.66495 15.8747 9.82092C15.7967 10.3982 15.6449 10.9396 15.2908 11.3316C14.8991 11.7654 14.3868 11.8852 13.9035 11.8852C13.3513 11.8852 12.8713 11.688 12.5325 11.2731C12.2279 10.9 12.1026 10.4274 12.0415 9.99898C11.9787 9.55945 11.9707 9.06253 11.9753 8.5664C11.9773 8.34662 11.9816 8.13404 11.9858 7.9204C11.9918 7.62146 11.9978 7.32044 11.9978 6.99475C11.9978 6.86449 11.9701 6.81236 11.9616 6.79831C11.9529 6.78392 11.9363 6.76325 11.8895 6.73833C11.7696 6.6744 11.5633 6.64063 11.3033 6.64062V14.1717L11.6313 14.1718C12.0886 14.1718 12.4593 14.5425 12.4593 14.9998C12.4593 15.4572 12.0886 15.8279 11.6313 15.8279H1.73061C1.27327 15.8279 0.902527 15.4572 0.902527 14.9998C0.902527 14.5425 1.27327 14.1718 1.73061 14.1718H2.05786V2.57843C2.05786 1.35885 3.0927 0.370197 4.36923 0.370197H8.99197C10.2685 0.370197 11.3033 1.35885 11.3033 2.57843V5.14062C11.6211 5.14063 12.1371 5.17059 12.5949 5.41453C12.8371 5.54356 13.0733 5.73788 13.2451 6.02207C13.4172 6.30661 13.4978 6.63666 13.4978 6.99475C13.4978 7.32255 13.4912 7.66409 13.485 7.98343C13.4808 8.19563 13.4769 8.39813 13.4752 8.58017C13.4708 9.0674 13.4808 9.46758 13.5264 9.78708C13.5736 10.1178 13.647 10.2663 13.6945 10.3245L13.6967 10.3272C13.7109 10.3453 13.7422 10.3852 13.9035 10.3852C14.1306 10.3852 14.1685 10.3376 14.1765 10.3276L14.1775 10.3263C14.2207 10.2785 14.3217 10.1125 14.3882 9.62015C14.4995 8.79591 14.4721 7.46316 14.3742 5.3252C14.315 5.33414 14.2542 5.33879 14.1924 5.33879C13.5541 5.33879 13.0367 4.84446 13.0367 4.23467C13.0367 3.85939 13.2327 3.52784 13.5322 3.32833L11.8893 1.40995C11.6198 1.09534 11.6565 0.62188 11.9711 0.352449ZM5.52145 2.80444C4.88318 2.80444 4.36577 3.29877 4.36577 3.90855V6.11679C4.36577 6.72657 4.88318 7.22091 5.52145 7.22091H7.83282C8.47109 7.22091 8.9885 6.72657 8.9885 6.11679V3.90855C8.9885 3.29877 8.47109 2.80444 7.83282 2.80444H5.52145Z" fill="#777E90"/>
</g>
<defs>
<clipPath id="clip0_1_5515">
<rect width="15.0574" height="15.6558" fill="white" transform="translate(0.902527 0.172089)"/>
</clipPath>
</defs>
</svg>
