<svg width="21" height="20" viewBox="0 0 21 20" fill="none" xmlns="http://www.w3.org/2000/svg">
<path fill-rule="evenodd" clip-rule="evenodd" d="M4.34406 4.28425C5.80623 2.8221 7.82787 1.9167 10.0598 1.9167C12.2918 1.9167 14.3134 2.8221 15.7756 4.28425C17.2378 5.74643 18.1432 7.76806 18.1432 9.99999C18.1432 12.232 17.2378 14.2537 15.7756 15.7158C14.3134 17.178 12.2918 18.0833 10.0598 18.0833C7.82786 18.0833 5.80623 17.178 4.34406 15.7158C2.88191 14.2537 1.9765 12.232 1.9765 9.99999C1.9765 7.76806 2.88191 5.74643 4.34406 4.28425ZM10.0598 3.08337C8.14971 3.08337 6.42134 3.8569 5.16901 5.10921C3.9167 6.36154 3.14317 8.08991 3.14317 9.99999C3.14317 11.9102 3.91671 13.6385 5.16902 14.8908C6.42134 16.1432 8.14971 16.9167 10.0598 16.9167C11.97 16.9167 13.6983 16.1432 14.9507 14.8908C16.203 13.6385 16.9765 11.9102 16.9765 9.99999C16.9765 8.08991 16.203 6.36154 14.9507 5.10921C13.6983 3.8569 11.97 3.08337 10.0598 3.08337ZM10.0598 14C10.382 14 10.6432 13.7388 10.6432 13.4167V9.24999C10.6432 8.92783 10.382 8.66666 10.0598 8.66666C9.73767 8.66666 9.4765 8.92783 9.4765 9.24999V13.4167C9.4765 13.7388 9.73767 14 10.0598 14ZM10.0597 6.41668C10.3818 6.41668 10.643 6.67784 10.643 7.00001C10.643 7.32218 10.3818 7.58334 10.0597 7.58334C9.7375 7.58334 9.47633 7.32218 9.47633 7.00001C9.47633 6.67784 9.7375 6.41668 10.0597 6.41668Z" fill="white"/>
</svg>
