<svg width="30" height="31" viewBox="0 0 30 31" fill="none" xmlns="http://www.w3.org/2000/svg">
<path fill-rule="evenodd" clip-rule="evenodd" d="M15 22.8164C19.2175 22.8164 22.6363 19.3975 22.6363 15.18C22.6363 10.9625 19.2175 7.54363 15 7.54363C10.7825 7.54363 7.36362 10.9625 7.36362 15.18C7.36362 19.3975 10.7825 22.8164 15 22.8164ZM15 24.7254C20.2717 24.7254 24.5454 20.4518 24.5454 15.18C24.5454 9.90818 20.2717 5.63454 15 5.63454C9.72817 5.63454 5.45453 9.90818 5.45453 15.18C5.45453 20.4518 9.72817 24.7254 15 24.7254Z" fill="#777E90"/>
<path fill-rule="evenodd" clip-rule="evenodd" d="M14.1727 12.7943C13.9087 13.2507 13.3249 13.4065 12.8685 13.1426C12.4122 12.8787 12.2562 12.2947 12.5202 11.8384C13.0139 10.9849 13.939 10.4073 15.0002 10.4073C16.5817 10.4073 17.8638 11.6894 17.8638 13.2709C17.8638 14.3187 17.221 15.1743 16.432 15.6573C15.7982 16.0453 16.1934 17.0891 14.9977 17.0891C14.4705 17.0891 14.0431 16.6617 14.0431 16.1345C14.0431 16.101 14.0449 16.0679 14.0482 16.0353C14.0746 15.5305 14.2998 15.1197 14.5449 14.821C14.8037 14.5056 15.144 14.2481 15.4042 14.0933C16.852 13.2327 15.0863 11.472 14.1727 12.7943ZM14.9977 18.0436C14.4705 18.0436 14.0431 18.471 14.0431 18.9982C14.0431 19.5254 14.4705 19.9527 14.9977 19.9527C15.5248 19.9527 15.9522 19.5254 15.9522 18.9982C15.9522 18.471 15.5248 18.0436 14.9977 18.0436Z" fill="#777E90"/>
</svg>
