<svg width="25" height="25" viewBox="0 0 25 25" fill="none" xmlns="http://www.w3.org/2000/svg">
<path fill-rule="evenodd" clip-rule="evenodd" d="M13.4022 9.1897L20.5 7.17999L18.7334 14.1876L16.5295 12.1215L12.9745 15.7378C12.8538 15.8606 12.6871 15.93 12.5128 15.93C12.3385 15.93 12.1718 15.8606 12.0511 15.7378L9.4408 13.0825L5.60169 16.9878C5.3569 17.2368 4.95176 17.2449 4.69678 17.0059C4.4418 16.7668 4.43353 16.3712 4.67831 16.1222L8.97911 11.7472C9.0998 11.6244 9.26653 11.555 9.4408 11.555C9.61507 11.555 9.7818 11.6244 9.90249 11.7472L12.5128 14.4025L15.6061 11.2558L13.4022 9.1897Z" fill="#10DAB6"/>
</svg>
