<svg width="42" height="42" viewBox="0 0 42 42" fill="none" xmlns="http://www.w3.org/2000/svg">
<circle cx="20.6263" cy="20.6263" r="6.87544" fill="#D2CDFF"/>
<path d="M41.1722 18.4149H31.8495C30.8485 13.1294 26.1938 9.13158 20.6027 9.13158C14.2813 9.13158 9.15674 14.242 9.15674 20.5461C9.15674 20.852 9.16882 21.1552 9.19251 21.4551V37.7176C3.65025 34.0262 0 27.7313 0 20.5861C0 9.21672 9.24211 0 20.6428 0C31.3082 0 40.0845 8.06612 41.1722 18.4149Z" fill="#4836FF"/>
<path d="M41.1454 22.9985C39.9477 33.2312 31.2251 41.1722 20.6428 41.1722C18.2401 41.1722 15.9333 40.7629 13.7887 40.0103V29.7184C15.6924 31.1272 18.0499 31.9605 20.6026 31.9605C26.0798 31.9605 30.6584 28.1239 31.7837 22.9985H41.1454Z" fill="#A49BFF"/>
</svg>
