<svg width="22" height="23" viewBox="0 0 22 23" fill="none" xmlns="http://www.w3.org/2000/svg">
<path d="M20.1667 11.75C20.1667 16.8126 16.0626 20.9167 11 20.9167V22.5833C16.9831 22.5833 21.8333 17.7331 21.8333 11.75H20.1667ZM11 20.9167C5.93741 20.9167 1.83335 16.8126 1.83335 11.75H0.166687C0.166687 17.7331 5.01694 22.5833 11 22.5833V20.9167ZM1.83335 11.75C1.83335 6.68738 5.93741 2.58332 11 2.58332V0.916656C5.01693 0.916656 0.166687 5.7669 0.166687 11.75H1.83335ZM11 2.58332C16.0626 2.58332 20.1667 6.68738 20.1667 11.75H21.8333C21.8333 5.76691 16.9831 0.916656 11 0.916656V2.58332ZM13.9435 8.76436L12.4559 13.227L14.0371 13.754L15.5246 9.29141L13.9435 8.76436ZM12.477 13.2059L8.01439 14.6935L8.54144 16.2746L13.004 14.7871L12.477 13.2059ZM8.05655 14.7356L9.54412 10.273L7.96296 9.74594L6.47542 14.2086L8.05655 14.7356ZM9.52302 10.2941L13.9856 8.80652L13.4586 7.22539L8.99597 8.71293L9.52302 10.2941ZM9.54412 10.273C9.55612 10.237 9.56472 10.2111 9.57232 10.1891C9.57992 10.1672 9.58402 10.1562 9.58602 10.1509C9.58792 10.1461 9.58592 10.152 9.57992 10.1637C9.57352 10.1766 9.56372 10.194 9.55042 10.2135L8.17481 9.27249C8.05394 9.44918 7.99406 9.65263 7.96296 9.74594L9.54412 10.273ZM8.99597 8.71293C8.90266 8.74403 8.69921 8.80391 8.52252 8.92478L9.46352 10.3004C9.44402 10.3137 9.42662 10.3235 9.41372 10.3299C9.40202 10.3359 9.39612 10.3379 9.40092 10.336C9.40622 10.334 9.41722 10.3299 9.43912 10.3223C9.46112 10.3147 9.48702 10.3061 9.52302 10.2941L8.99597 8.71293ZM9.55042 10.2135C9.52712 10.2476 9.49762 10.2771 9.46352 10.3004L8.52252 8.92478C8.38606 9.01812 8.26815 9.13603 8.17481 9.27249L9.55042 10.2135ZM8.01439 14.6935C7.89028 14.7348 7.79066 14.768 7.70459 14.7951C7.61796 14.8224 7.55912 14.839 7.51737 14.8488C7.47409 14.8589 7.47034 14.8566 7.49066 14.8559C7.51497 14.8549 7.5797 14.8559 7.66255 14.8855L7.10275 16.4553C7.42103 16.5688 7.72269 16.5126 7.89862 16.4712C8.08691 16.427 8.31292 16.3508 8.54144 16.2746L8.01439 14.6935ZM6.47542 14.2086C6.39924 14.4371 6.32303 14.6631 6.27878 14.8514C6.23744 15.0273 6.18122 15.329 6.29472 15.6473L7.86456 15.0875C7.8941 15.1703 7.89507 15.2351 7.89415 15.2594C7.89337 15.2797 7.89109 15.2759 7.90126 15.2327C7.91107 15.1909 7.92765 15.1321 7.95491 15.0454C7.982 14.9594 8.01518 14.8597 8.05655 14.7356L6.47542 14.2086ZM7.66255 14.8855C7.75679 14.9191 7.83095 14.9932 7.86456 15.0875L6.29472 15.6473C6.42914 16.0242 6.72579 16.3209 7.10275 16.4553L7.66255 14.8855ZM12.4559 13.227C12.4439 13.263 12.4353 13.2889 12.4277 13.3109C12.4201 13.3328 12.416 13.3438 12.414 13.3491C12.4121 13.3539 12.4141 13.348 12.4201 13.3363C12.4265 13.3234 12.4363 13.306 12.4496 13.2865L13.8252 14.2275C13.9461 14.0508 14.006 13.8474 14.0371 13.754L12.4559 13.227ZM13.004 14.7871C13.0974 14.756 13.3008 14.6961 13.4775 14.5752L12.5365 13.1996C12.556 13.1863 12.5734 13.1765 12.5863 13.1701C12.598 13.1641 12.6039 13.1621 12.5991 13.164C12.5938 13.166 12.5828 13.1701 12.5609 13.1777C12.5389 13.1853 12.513 13.1939 12.477 13.2059L13.004 14.7871ZM12.4496 13.2865C12.4729 13.2524 12.5024 13.2229 12.5365 13.1996L13.4775 14.5752C13.614 14.4819 13.7319 14.364 13.8252 14.2275L12.4496 13.2865ZM15.5246 9.29141C15.6008 9.06289 15.677 8.83688 15.7212 8.64859C15.7626 8.47266 15.8188 8.171 15.7053 7.85272L14.1355 8.41252C14.1059 8.32967 14.1049 8.26494 14.1059 8.24063C14.1066 8.22031 14.1089 8.22406 14.0988 8.26734C14.089 8.30909 14.0724 8.36793 14.0451 8.45456C14.018 8.54063 13.9848 8.64024 13.9435 8.76436L15.5246 9.29141ZM13.9856 8.80652C14.1097 8.76515 14.2094 8.73197 14.2954 8.70488C14.3821 8.67762 14.4409 8.66104 14.4827 8.65123C14.5259 8.64106 14.5297 8.64334 14.5094 8.64412C14.4851 8.64504 14.4203 8.64407 14.3375 8.61453L14.8973 7.04469C14.579 6.93119 14.2773 6.98741 14.1014 7.02875C13.9131 7.073 13.6871 7.14921 13.4586 7.22539L13.9856 8.80652ZM15.7053 7.85272C15.5709 7.47576 15.2742 7.17911 14.8973 7.04469L14.3375 8.61453C14.2432 8.58092 14.1691 8.50676 14.1355 8.41252L15.7053 7.85272Z" fill="#777E90"/>
</svg>
