<svg width="24" height="24" viewBox="0 0 24 24" fill="none" xmlns="http://www.w3.org/2000/svg">
<path d="M19.1554 17.1755C18.281 17.4231 17.3648 17.3517 16.5884 16.8627C15.9157 16.4392 15.4193 15.7815 15.0035 15.1166C14.0905 13.6568 13.5065 12.0049 12.4489 10.6351C11.8213 9.8222 11.2772 8.94806 10.6591 8.12768C10.0376 7.30278 9.35005 6.45951 8.44769 5.92794C7.39892 5.30987 6.20563 5.40622 5.16645 6.00035C4.23401 6.53324 3.36732 7.35921 2.92732 8.35048C2.71038 8.83892 2.36639 9.47778 2.23303 9.99417C2.04271 10.731 1.99034 11.6918 1.88281 12.4459C1.69808 13.7406 1.82771 14.7602 2.46682 15.9311C3.04044 16.982 4.13685 17.7781 5.35517 17.8223C6.50056 17.8639 7.44737 17.1774 8.16393 16.3485C9.79271 14.4642 11.0323 12.3336 12.3539 10.2351C12.8709 9.41414 13.408 8.59882 14.0511 7.86975C14.6303 7.21308 15.3259 6.55321 16.1832 6.29235C18.5525 5.57126 20.0594 8.42421 20.6767 10.2329C21.1169 11.5231 21.4212 12.9299 21.3986 14.2991C21.3844 15.1594 21.1366 15.9958 20.4414 16.5489C20.0644 16.8486 19.6114 17.0352 19.1554 17.1755C18.6657 17.3264 18.8746 18.0973 19.3678 17.9456C20.2896 17.6618 21.1667 17.1806 21.6807 16.3352C22.1958 15.4879 22.2426 14.466 22.1638 13.5038C22.0472 12.0768 21.7265 10.6673 21.1933 9.33802C20.7336 8.19157 20.1206 7.05603 19.1405 6.27105C15.2503 3.15432 12.1418 9.02871 10.4797 11.7526C9.77275 12.911 9.00241 13.993 8.17432 15.0663C7.54745 15.8789 6.83462 16.8356 5.74912 17.0049C4.50525 17.1987 3.3966 16.2247 2.96884 15.1312C2.45803 13.8256 2.65102 12.3943 2.96006 11.0663C3.20521 10.0131 3.40644 8.80485 4.10278 7.93816C4.80896 7.05922 6.01051 6.13211 7.20568 6.30539C8.19029 6.44807 8.96115 7.294 9.56353 8.01775C10.2489 8.84105 10.8204 9.75007 11.4457 10.6178C11.9363 11.2987 12.4096 11.9517 12.8043 12.6959C13.2172 13.474 13.5911 14.2725 14.0274 15.0383C14.8603 16.501 16.0028 17.908 17.7867 18.0968C18.3164 18.1529 18.8568 18.0904 19.3678 17.9456C19.8616 17.8058 19.6516 17.035 19.1554 17.1755Z" fill="#777E90"/>
<path d="M5.68153 9.49176C5.69337 9.4275 5.75634 9.3799 5.80494 9.34221C5.93011 9.24882 6.05748 9.15681 6.19192 9.07826C6.22482 9.05908 6.25815 9.04082 6.29193 9.02346L6.34226 8.99926C6.41246 8.97574 6.48023 8.95063 6.55308 8.93624C6.63971 8.91929 6.70911 8.92682 6.75507 8.93738C6.79481 8.94675 6.83322 8.95976 6.87141 8.97483C7.03345 9.03945 7.24184 8.90359 7.27871 8.73554C7.32198 8.53941 7.22087 8.38346 7.04736 8.31428C6.6533 8.15696 6.21091 8.28026 5.8577 8.48644C5.70604 8.57503 5.56078 8.67892 5.42192 8.7876C5.2504 8.92209 5.0888 9.08146 5.04288 9.3091C5.00756 9.484 5.09233 9.68766 5.27424 9.73036C5.44025 9.77009 5.64378 9.67944 5.68153 9.49176ZM8.0922 9.34312C8.51826 9.34312 8.51914 8.65814 8.0922 8.65814C7.66614 8.65814 7.66525 9.34312 8.0922 9.34312ZM16.466 14.7864C16.7508 15.3677 17.3106 15.8107 17.9283 15.9404C18.0976 15.976 18.2941 15.8899 18.3356 15.7011C18.3731 15.5303 18.2859 15.318 18.1042 15.2798C18.0393 15.2661 17.9753 15.2495 17.9122 15.2285C17.8793 15.2175 17.8466 15.2056 17.8142 15.1926C17.8022 15.1878 17.7486 15.1652 17.8011 15.1878C17.8537 15.2104 17.8005 15.1871 17.7888 15.1814C17.6665 15.1232 17.5612 15.0456 17.4486 14.9709C17.4696 14.9848 17.504 15.0161 17.4634 14.9823C17.4512 14.9721 17.4391 14.9615 17.427 14.951C17.4029 14.9298 17.3795 14.9081 17.3565 14.8857C17.3084 14.8387 17.2629 14.7889 17.2199 14.7369C17.2097 14.7245 17.1998 14.7118 17.1896 14.6992C17.1453 14.6446 17.2351 14.765 17.1952 14.7067C17.1768 14.6803 17.1583 14.654 17.1411 14.6266C17.1029 14.5668 17.0685 14.5044 17.0371 14.4405C16.9587 14.2805 16.728 14.2215 16.5841 14.3177C16.4267 14.4234 16.3821 14.6152 16.466 14.7864Z" fill="#777E90"/>
<path fill-rule="evenodd" clip-rule="evenodd" d="M8.0922 9.34312C8.51826 9.34312 8.51914 8.65814 8.0922 8.65814C7.66614 8.65814 7.66525 9.34312 8.0922 9.34312Z" fill="#777E90"/>
<path fill-rule="evenodd" clip-rule="evenodd" d="M16.4136 14.0638C16.1202 14.2608 16.0451 14.6225 16.1914 14.921C16.5161 15.5839 17.1523 16.09 17.8655 16.2397C18.0697 16.2499 18.4926 16.2011 18.5497 15.9237C18.5623 15.8627 18.5785 15.8111 18.5931 15.7643C18.6617 15.545 18.6966 15.4337 18.1671 14.9805C18.1115 14.9688 18.059 14.955 18.0087 14.9383C17.9811 14.9291 17.9535 14.919 17.9273 14.9085L17.9254 14.9077L17.9222 14.9062L17.9202 14.9053C17.8455 14.8697 17.7826 14.8272 17.6982 14.7701L17.64 14.7309L17.6282 14.7208C17.4384 14.6682 17.3382 14.4224 17.3118 14.306C17.2265 14.1319 17.0679 14.0284 16.9138 13.9875C16.7604 13.9467 16.572 13.958 16.4136 14.0638ZM18.1042 15.2798C18.2859 15.318 18.3731 15.5303 18.3356 15.7011C18.2941 15.8899 18.0976 15.976 17.9283 15.9404C17.7385 15.9005 17.5541 15.8311 17.3815 15.7371C16.9925 15.5254 16.6633 15.1891 16.466 14.7864C16.3821 14.6152 16.4267 14.4234 16.5841 14.3177C16.7218 14.2257 16.9389 14.2756 17.0261 14.4203C17.1267 14.5781 17.356 14.9111 17.4675 14.9805C17.6068 15.0673 17.9284 15.2798 18.1042 15.2798Z" fill="#777E90"/>
<path fill-rule="evenodd" clip-rule="evenodd" d="M16.1832 6.29235C15.3259 6.55321 14.6303 7.21308 14.0511 7.86975C13.6621 8.31074 13.3119 8.78329 12.9815 9.26953C12.794 9.54542 12.6129 9.82571 12.4347 10.1072L12.3539 10.2351L12.2597 10.385C12.322 10.4689 12.385 10.5523 12.4489 10.6351L12.4571 10.6458C13.0781 11.4528 13.5358 12.3572 13.9938 13.2622C14.3119 13.8908 14.6302 14.5198 15.0035 15.1166C15.1759 15.3923 15.3621 15.6667 15.569 15.9237L15.8968 16.2953C16.1057 16.5097 16.3345 16.7029 16.5884 16.8627C17.2077 17.2528 17.9161 17.3771 18.6212 17.2858C18.7009 17.2755 18.7806 17.2624 18.8601 17.2466C18.9589 17.227 19.0574 17.2033 19.1554 17.1755C19.3304 17.1217 19.505 17.061 19.675 16.9898C19.9479 16.8753 20.2091 16.7336 20.4414 16.5489C21.0517 16.0633 21.3172 15.3595 21.3825 14.6128C21.3916 14.5089 21.3968 14.4042 21.3986 14.2991C21.4058 13.8588 21.3793 13.4145 21.3253 12.9715C21.2114 12.0371 20.9753 11.1082 20.6767 10.2329C20.0594 8.42421 18.5525 5.57126 16.1832 6.29235ZM16.7513 16.604C17.4414 17.0385 18.2641 17.1092 19.0688 16.8822C19.1376 16.861 19.2057 16.8389 19.2728 16.8157C19.6348 16.6904 19.9704 16.5327 20.251 16.3095C20.6697 15.9764 20.9088 15.5173 21.0188 14.9927C21.0654 14.77 21.0888 14.5357 21.0928 14.2941C21.1008 13.8088 21.0663 13.3171 20.9979 12.8263C20.88 11.9794 20.6614 11.1352 20.3872 10.3317C20.0845 9.44475 19.5696 8.32238 18.8577 7.51642C18.1503 6.71547 17.2974 6.27293 16.2723 6.58493C15.5019 6.81932 14.8542 7.42156 14.2805 8.07205C13.914 8.48746 13.5817 8.93307 13.2656 9.39562C13.0483 9.71369 12.8386 10.0398 12.6307 10.3695C12.6507 10.3958 12.6708 10.4221 12.691 10.4482C13.2382 11.1569 13.6592 11.9339 14.0527 12.7028C14.1253 12.8447 14.1969 12.9861 14.2681 13.1268L14.269 13.1286C14.5869 13.7566 14.8976 14.3705 15.2628 14.9544C15.6721 15.609 16.1387 16.2183 16.7513 16.604Z" fill="#777E90"/>
<path fill-rule="evenodd" clip-rule="evenodd" d="M5.20372 10.0279C5.48179 10.0941 5.86653 9.96272 5.96929 9.60193C6.06944 9.47176 6.35299 9.21619 6.68591 9.23529C6.70674 9.24026 6.73016 9.24788 6.75879 9.25917C6.95332 9.33645 7.14751 9.28502 7.28113 9.2036C7.34918 9.16215 7.41444 9.10545 7.46737 9.03592C7.47402 9.17118 7.51957 9.31422 7.61684 9.43142C7.72857 9.56603 7.895 9.64895 8.0922 9.64895C8.28938 9.64895 8.45565 9.56588 8.56727 9.43147C8.673 9.30414 8.71781 9.14621 8.71791 9.00083L8.71779 8.98759C8.71524 8.84591 8.67019 8.6935 8.56756 8.56985C8.45584 8.43524 8.28941 8.35232 8.0922 8.35232C7.99423 8.35232 7.90388 8.37283 7.82408 8.40996C7.74328 8.44755 7.67329 8.50217 7.61714 8.56979C7.60869 8.57997 7.60062 8.59035 7.59294 8.6009C7.5863 8.50367 7.55846 8.40994 7.50934 8.32467C7.42854 8.18438 7.30159 8.08644 7.16075 8.03026C6.63985 7.8223 6.09269 7.99516 5.70353 8.22232C5.53597 8.3202 5.37881 8.43299 5.23343 8.54678C5.05162 8.68933 4.81197 8.90734 4.7431 9.24863C4.68722 9.52553 4.80814 9.93469 5.20372 10.0279ZM5.80494 9.34221L5.80177 9.34467C5.75365 9.38197 5.69311 9.42889 5.68153 9.49176C5.64378 9.67944 5.44025 9.77009 5.27424 9.73036C5.09233 9.68766 5.00756 9.484 5.04288 9.3091C5.04721 9.28763 5.05258 9.26676 5.05888 9.24646C5.11938 9.05161 5.26658 8.9094 5.42192 8.7876C5.56078 8.67892 5.70604 8.57503 5.8577 8.48644C6.21091 8.28026 6.6533 8.15696 7.04736 8.31428C7.22087 8.38346 7.32198 8.53941 7.27871 8.73554C7.24184 8.90359 7.03345 9.03945 6.87141 8.97483C6.83322 8.95976 6.79481 8.94675 6.75507 8.93738C6.70911 8.92682 6.63971 8.91929 6.55308 8.93624C6.4921 8.94828 6.43469 8.96784 6.37643 8.98769L6.34226 8.99926L6.29193 9.02346C6.25815 9.04082 6.22482 9.05908 6.19192 9.07826C6.1069 9.12793 6.02471 9.183 5.94411 9.24039C5.89726 9.27374 5.85095 9.30788 5.80494 9.34221ZM8.0922 9.34312C8.51826 9.34312 8.51914 8.65814 8.0922 8.65814C7.66614 8.65814 7.66525 9.34312 8.0922 9.34312Z" fill="#777E90"/>
<path fill-rule="evenodd" clip-rule="evenodd" d="M3.04799 10.6785C3.01869 10.8094 2.98969 10.939 2.96006 11.0663C2.65102 12.3943 2.45803 13.8256 2.96884 15.1312C3.3966 16.2247 4.50525 17.1987 5.74912 17.0049C6.80761 16.8398 7.51175 15.9261 8.12736 15.1272L8.17432 15.0663C9.00241 13.993 9.77275 12.911 10.4797 11.7526C10.5361 11.6602 10.5941 11.5643 10.6537 11.4652C10.7116 11.3689 10.7711 11.2697 10.8321 11.168C10.9246 11.0135 11.0207 10.8533 11.1202 10.6886C11.1767 10.5951 11.2344 10.5001 11.2932 10.404C11.229 10.3132 11.1652 10.222 11.1017 10.1307C11.0184 10.0109 10.9355 9.89082 10.8526 9.77071C10.4405 9.17338 10.0282 8.57585 9.56353 8.01775C9.44674 7.87743 9.32363 7.73252 9.19385 7.58904C8.65422 6.99242 7.9994 6.42041 7.20568 6.30539C6.9324 6.26577 6.65879 6.28368 6.39084 6.34539C5.48694 6.55357 4.64749 7.26019 4.10278 7.93816C3.60544 8.55717 3.36067 9.35039 3.17206 10.137C3.12851 10.3186 3.08796 10.4998 3.04799 10.6785ZM10.5907 9.92984C10.7019 10.091 10.8137 10.2531 10.9276 10.4158C10.8014 10.6238 10.6809 10.8249 10.5664 11.0161C10.4849 11.1521 10.4065 11.283 10.3311 11.4079C10.2928 11.4713 10.2554 11.5331 10.2187 11.5932C9.51907 12.7396 8.75562 13.8123 7.93219 14.8795L7.89006 14.9341C7.58593 15.3287 7.27941 15.7263 6.92633 16.0521C6.56054 16.3896 6.16443 16.6306 5.70205 16.7027C4.65284 16.8661 3.65159 16.0371 3.25365 15.0198C2.77897 13.8065 2.95095 12.4548 3.25793 11.1357L3.34847 10.7364C3.38927 10.5541 3.43005 10.3719 3.47369 10.1905C3.52771 9.96608 3.5861 9.74302 3.65435 9.52282C3.81663 8.9992 4.02677 8.52106 4.34119 8.12971C4.40845 7.9531 5.22655 7.29635 5.62719 6.99005C6.05701 6.73443 6.50597 6.58274 6.94325 6.59049C7.01649 6.59179 7.08939 6.59756 7.16183 6.60806C7.57971 6.66861 7.96796 6.88083 8.33436 7.18042C8.35771 7.19952 8.3809 7.2189 8.40393 7.23857C8.74284 7.52785 9.04797 7.87637 9.3285 8.21342C9.7844 8.76104 10.1831 9.33905 10.5907 9.92984Z" fill="#777E90"/>
<path fill-rule="evenodd" clip-rule="evenodd" d="M21.942 16.494C22.5088 15.5618 22.5489 14.4586 22.4686 13.4788C22.3497 12.0229 22.0223 10.5834 21.4772 9.2242C21.0109 8.06142 20.3736 6.86688 19.3317 6.03238C18.3014 5.20691 17.2903 4.95568 16.3258 5.1286C15.377 5.29873 14.5188 5.87144 13.7622 6.60151C13.0999 7.24054 12.4935 8.02284 11.9523 8.81289C11.8812 8.91659 11.8113 9.02042 11.7425 9.12408C11.6087 8.93001 11.4737 8.73449 11.3363 8.53959C11.1952 8.33954 11.0514 8.14014 10.9034 7.94366C10.282 7.11898 9.56295 6.22998 8.60292 5.66444C7.44231 4.98048 6.13035 5.09701 5.01471 5.73483C4.04134 6.29112 3.1207 7.16105 2.6478 8.2264C2.58844 8.36004 2.52593 8.49152 2.45944 8.63138C2.39985 8.75673 2.33705 8.88881 2.27046 9.03522C2.13937 9.3234 2.01063 9.63234 1.93693 9.91769C1.83629 10.3073 1.77374 10.749 1.72316 11.1777C1.70469 11.3343 1.68793 11.4878 1.67159 11.6375C1.64223 11.9065 1.61422 12.163 1.58005 12.4027C1.38738 13.7531 1.52334 14.8408 2.19839 16.0776C2.8145 17.2064 3.99999 18.0792 5.34409 18.128C6.62644 18.1745 7.65473 17.4051 8.39531 16.5485C9.70959 15.028 10.7743 13.3477 11.8178 11.6718C12.0759 12.0495 12.3174 12.4305 12.5341 12.8392C12.6867 13.1267 12.8375 13.4244 12.9898 13.7251C13.2382 14.2155 13.4906 14.7139 13.7617 15.1897C14.6016 16.6648 15.8116 18.1953 17.7546 18.4009C18.3193 18.4608 18.8893 18.3958 19.4236 18.2476C19.4339 18.2449 19.4441 18.242 19.4544 18.2389C19.4646 18.236 19.4746 18.2329 19.4845 18.2296C20.4315 17.9341 21.3781 17.4217 21.942 16.494ZM19.3906 17.9385C19.5753 17.881 19.7582 17.8154 19.9366 17.7405C20.6401 17.445 21.274 17.004 21.6807 16.3352C22.1472 15.5679 22.2296 14.6573 22.1825 13.7776C22.1776 13.6859 22.1713 13.5946 22.1638 13.5038C22.1593 13.4482 22.1544 13.3927 22.1493 13.3371C22.0219 11.9671 21.7057 10.6156 21.1933 9.33802C20.7336 8.19157 20.1206 7.05603 19.1405 6.27105C16.3583 4.04201 13.9759 6.41185 12.2365 8.93901C12.132 9.09087 12.0298 9.2433 11.9299 9.39534C11.8691 9.48798 11.8092 9.58047 11.7501 9.67259C11.6871 9.58198 11.6243 9.49118 11.5616 9.40033L11.4961 9.30538C11.2618 8.96584 11.0276 8.62628 10.7831 8.29415C10.7421 8.23844 10.7008 8.18294 10.6591 8.12768C10.0376 7.30278 9.35005 6.45951 8.44769 5.92794C7.46638 5.34962 6.35855 5.39679 5.36881 5.89194C5.30078 5.92598 5.23329 5.96213 5.16645 6.00035C4.23401 6.53324 3.36732 7.35921 2.92732 8.35048C2.86931 8.48107 2.80223 8.62244 2.73251 8.76933C2.54532 9.16373 2.33919 9.59805 2.23906 9.97132L2.23303 9.99417C2.10432 10.4925 2.03871 11.0932 1.97646 11.6631C1.94666 11.936 1.91762 12.2017 1.88281 12.4459C1.69808 13.7406 1.82771 14.7602 2.46682 15.9311C3.04044 16.982 4.13685 17.7781 5.35517 17.8223C6.50056 17.8639 7.44737 17.1774 8.16393 16.3485C9.43634 14.8764 10.4713 13.2542 11.4933 11.6142L11.6278 11.3981L11.7313 11.2318L11.8032 11.1163C11.8675 11.2069 11.9311 11.2975 11.9941 11.3885C12.2846 11.8081 12.5596 12.2345 12.8043 12.6959C12.8453 12.7731 12.8859 12.8506 12.9262 12.9281C13.042 13.151 13.1554 13.3751 13.2689 13.5992C13.5139 14.083 13.7588 14.5669 14.0274 15.0383C14.8049 16.4037 15.8521 17.7205 17.439 18.0433C17.5521 18.0663 17.668 18.0842 17.7867 18.0968C17.8673 18.1053 17.9481 18.1111 18.0291 18.1143C18.2787 18.1241 18.5294 18.109 18.777 18.0727C18.9687 18.0446 19.1585 18.0038 19.3445 17.9521C19.3522 17.9502 19.36 17.948 19.3678 17.9456C19.3756 17.9434 19.3832 17.941 19.3906 17.9385Z" fill="#777E90"/>
<path fill-rule="evenodd" clip-rule="evenodd" d="M19.3906 17.9385C19.5753 17.881 19.7582 17.8154 19.9366 17.7405C20.6401 17.445 21.274 17.004 21.6807 16.3352C22.1472 15.5679 22.2296 14.6573 22.1825 13.7776C22.1776 13.6859 22.1713 13.5946 22.1638 13.5038C22.1593 13.4482 22.1544 13.3927 22.1493 13.3371C22.0219 11.9671 21.7057 10.6156 21.1933 9.33802C20.7336 8.19157 20.1206 7.05603 19.1405 6.27105C16.3583 4.04201 13.9759 6.41185 12.2365 8.93901C12.132 9.09087 12.0298 9.2433 11.9299 9.39534C11.8691 9.48798 11.8092 9.58047 11.7501 9.67259C11.6871 9.58198 11.6243 9.49118 11.5616 9.40033L11.4961 9.30538C11.2618 8.96584 11.0276 8.62628 10.7831 8.29415C10.7421 8.23844 10.7008 8.18294 10.6591 8.12768C10.0376 7.30278 9.35005 6.45951 8.44769 5.92794C7.46638 5.34962 6.35855 5.39679 5.36881 5.89194C5.30078 5.92598 5.23329 5.96213 5.16645 6.00035C4.23401 6.53324 3.36732 7.35921 2.92732 8.35048C2.86931 8.48107 2.80223 8.62244 2.73251 8.76933C2.54532 9.16373 2.33919 9.59805 2.23906 9.97132L2.23303 9.99417C2.10432 10.4925 2.03871 11.0932 1.97646 11.6631C1.94666 11.936 1.91762 12.2017 1.88281 12.4459C1.69808 13.7406 1.82771 14.7602 2.46682 15.9311C3.04044 16.982 4.13685 17.7781 5.35517 17.8223C6.50056 17.8639 7.44737 17.1774 8.16393 16.3485C9.43634 14.8764 10.4713 13.2542 11.4933 11.6142L11.6278 11.3981L11.7313 11.2318L11.8032 11.1163C11.8675 11.2069 11.9311 11.2975 11.9941 11.3885C12.2846 11.8081 12.5596 12.2345 12.8043 12.6959C12.8453 12.7731 12.8859 12.8506 12.9262 12.9281C13.042 13.151 13.1554 13.3751 13.2689 13.5992C13.5139 14.083 13.7588 14.5669 14.0274 15.0383C14.8049 16.4037 15.8521 17.7205 17.439 18.0433C17.5521 18.0663 17.668 18.0842 17.7867 18.0968C17.8673 18.1053 17.9481 18.1111 18.0291 18.1143C18.2787 18.1241 18.5294 18.109 18.777 18.0727C18.9687 18.0446 19.1585 18.0038 19.3445 17.9521C19.3522 17.9502 19.36 17.948 19.3678 17.9456C19.3756 17.9434 19.3832 17.941 19.3906 17.9385ZM10.5907 9.92984C10.1831 9.33905 9.7844 8.76104 9.3285 8.21342C9.04797 7.87637 8.74284 7.52785 8.40393 7.23857C8.3809 7.2189 8.35771 7.19952 8.33436 7.18042C7.96796 6.88083 7.57971 6.66861 7.16183 6.60806C7.08939 6.59756 7.01649 6.59179 6.94325 6.59049C6.50597 6.58274 6.05701 6.73443 5.62719 6.99005C5.22655 7.29635 4.40845 7.9531 4.34119 8.12971C4.02677 8.52106 3.81663 8.9992 3.65435 9.52282C3.5861 9.74302 3.52771 9.96608 3.47369 10.1905L3.34847 10.7364L3.25793 11.1357C2.95095 12.4548 2.77897 13.8065 3.25365 15.0198C3.65159 16.0371 4.65284 16.8661 5.70205 16.7027C6.16443 16.6306 6.56054 16.3896 6.92633 16.0521C7.27941 15.7263 7.58593 15.3287 7.89006 14.9341L7.93219 14.8795C8.75562 13.8123 9.51907 12.7396 10.2187 11.5932C10.2554 11.5331 10.2928 11.4713 10.3311 11.4079C10.4065 11.283 10.4849 11.1521 10.5664 11.0161C10.6809 10.8249 10.8014 10.6238 10.9276 10.4158C10.8137 10.2531 10.7019 10.091 10.5907 9.92984ZM5.96929 9.60193C5.86653 9.96272 5.48179 10.0941 5.20372 10.0279C4.80814 9.93469 4.68722 9.52553 4.7431 9.24863C4.81197 8.90734 5.05162 8.68933 5.23343 8.54678C5.37881 8.43299 5.53597 8.3202 5.70353 8.22232C6.09269 7.99516 6.63985 7.8223 7.16075 8.03026C7.30159 8.08644 7.42854 8.18438 7.50934 8.32467C7.55846 8.40994 7.5863 8.50367 7.59294 8.6009C7.60062 8.59035 7.60869 8.57997 7.61714 8.56979C7.67329 8.50217 7.74328 8.44755 7.82408 8.40996C7.90388 8.37283 7.99423 8.35232 8.0922 8.35232C8.28941 8.35232 8.45584 8.43524 8.56756 8.56985C8.67019 8.6935 8.71524 8.84591 8.71779 8.98759L8.71791 9.00083C8.71781 9.14621 8.673 9.30414 8.56727 9.43147C8.45565 9.56588 8.28938 9.64895 8.0922 9.64895C7.895 9.64895 7.72857 9.56603 7.61684 9.43142C7.51957 9.31422 7.47402 9.17118 7.46737 9.03592C7.41444 9.10545 7.34918 9.16215 7.28113 9.2036C7.14751 9.28502 6.95332 9.33645 6.75879 9.25917C6.73016 9.24788 6.70674 9.24026 6.68591 9.23529C6.35299 9.21619 6.06944 9.47176 5.96929 9.60193ZM16.7513 16.604C17.4414 17.0385 18.2641 17.1092 19.0688 16.8822C19.1376 16.861 19.2057 16.8389 19.2728 16.8157C19.6348 16.6904 19.9704 16.5327 20.251 16.3095C20.6697 15.9764 20.9088 15.5173 21.0188 14.9927C21.0654 14.77 21.0888 14.5357 21.0928 14.2941C21.1008 13.8088 21.0663 13.3171 20.9979 12.8263C20.88 11.9794 20.6614 11.1352 20.3872 10.3317C20.0845 9.44475 19.5696 8.32238 18.8577 7.51642C18.1503 6.71547 17.2974 6.27293 16.2723 6.58493C15.5019 6.81932 14.8542 7.42156 14.2805 8.07205C13.914 8.48746 13.5817 8.93307 13.2656 9.39562C13.0483 9.71369 12.8386 10.0398 12.6307 10.3695C12.6507 10.3958 12.6708 10.4221 12.691 10.4482C13.2382 11.1569 13.6592 11.9339 14.0527 12.7028C14.1253 12.8447 14.1969 12.9861 14.2681 13.1268L14.269 13.1286C14.5869 13.7566 14.8976 14.3705 15.2628 14.9544C15.6721 15.609 16.1387 16.2183 16.7513 16.604ZM16.4136 14.0638C16.1202 14.2608 16.0451 14.6225 16.1914 14.921C16.5161 15.5839 17.1523 16.09 17.8655 16.2397C18.0697 16.2499 18.4926 16.2011 18.5497 15.9237C18.5623 15.8627 18.5785 15.8111 18.5931 15.7643C18.6617 15.545 18.6966 15.4337 18.1671 14.9805C18.1115 14.9688 18.059 14.955 18.0087 14.9383C17.9811 14.9291 17.9535 14.919 17.9273 14.9085L17.9254 14.9077L17.9222 14.9062L17.9202 14.9053C17.8455 14.8697 17.7826 14.8272 17.6982 14.7701L17.64 14.7309L17.6282 14.7208C17.4384 14.6682 17.3382 14.4224 17.3118 14.306C17.2265 14.1319 17.0679 14.0284 16.9138 13.9875C16.7604 13.9467 16.572 13.958 16.4136 14.0638Z" fill="#777E90"/>
</svg>
