<svg width="24" height="24" viewBox="0 0 24 24" fill="none" xmlns="http://www.w3.org/2000/svg">
<path fill-rule="evenodd" clip-rule="evenodd" d="M16.1262 3.43797C17.6313 3.43798 19.0748 4.03588 20.1391 5.10015C20.9668 5.92791 21.5125 6.98504 21.7141 8.12216L23.2481 16.0422C23.3745 16.7596 23.2689 17.4986 22.9467 18.1518C22.6245 18.8051 22.1025 19.3386 21.4564 19.675C20.8103 20.0113 20.0738 20.1329 19.3539 20.0222C18.634 19.9114 17.9681 19.574 17.453 19.059C17.4432 19.0492 17.4336 19.0391 17.4242 19.0287L13.6135 14.7981L10.3908 14.811L6.57454 19.0299C6.56556 19.0399 6.55634 19.0496 6.54688 19.059C6.03178 19.574 5.36592 19.9114 4.646 20.0222C3.92609 20.1329 3.18961 20.0113 2.54352 19.675C1.89744 19.3386 1.3754 18.8051 1.05323 18.1518C0.731052 17.4986 0.625517 16.7596 0.751949 16.0423L0.754376 16.0285L2.28661 8.14456C2.51985 6.83346 3.20665 5.64602 4.22698 4.79004C5.24882 3.93278 6.53989 3.46275 7.87367 3.46237C7.87407 3.46237 7.87446 3.46237 7.87486 3.46237L16.1262 3.43797ZM13.9618 13.1967C13.9638 13.1966 13.9658 13.1966 13.9678 13.1966L16.123 13.188L16.1262 13.188C17.207 13.188 18.2435 12.7587 19.0077 11.9945C19.7719 11.2302 20.2013 10.1937 20.2013 9.11299C20.2013 8.8758 20.1806 8.64075 20.1402 8.41024C20.1395 8.40656 20.1389 8.40288 20.1383 8.39921C19.9932 7.58357 19.6015 6.82534 19.0077 6.23152C18.2438 5.46757 17.2077 5.03827 16.1274 5.03798C16.127 5.03798 16.1266 5.03798 16.1262 5.03798L7.87729 5.06237L7.87498 5.06237C6.91684 5.06244 5.98935 5.40001 5.25532 6.01581C4.52128 6.63161 4.02762 7.4863 3.86098 8.42983L3.8586 8.44333L2.32657 16.3263C2.26091 16.7065 2.31746 17.0979 2.4882 17.4441C2.65988 17.7922 2.93806 18.0765 3.28234 18.2558C3.62662 18.435 4.01907 18.4998 4.40269 18.4408C4.7803 18.3827 5.12999 18.2076 5.40264 17.9404L9.44114 13.4757C9.59206 13.3089 9.80626 13.2133 10.0312 13.2124L13.9618 13.1967ZM20.8774 12.2166C20.6649 12.5419 20.418 12.8469 20.1391 13.1258C19.0752 14.1897 17.6324 14.7876 16.1278 14.788C16.1273 14.788 16.1268 14.788 16.1262 14.788L15.7591 14.7895L18.5978 17.9409C18.8704 18.2078 19.2199 18.3827 19.5972 18.4408C19.9808 18.4998 20.3733 18.435 20.7176 18.2558C21.0618 18.0765 21.34 17.7922 21.5117 17.4441C21.6825 17.0978 21.739 16.7064 21.6733 16.326L20.8774 12.2166ZM8.2495 6.83738C8.69133 6.83738 9.0495 7.19555 9.0495 7.63738V8.33738H9.74951C10.1913 8.33738 10.5495 8.69555 10.5495 9.13738C10.5495 9.57921 10.1913 9.93738 9.74951 9.93738H9.0495V10.6374C9.0495 11.0792 8.69133 11.4374 8.2495 11.4374C7.80768 11.4374 7.4495 11.0792 7.4495 10.6374V9.93738H6.7495C6.30767 9.93738 5.9495 9.57921 5.9495 9.13738C5.9495 8.69555 6.30767 8.33738 6.7495 8.33738H7.4495V7.63738C7.4495 7.19555 7.80768 6.83738 8.2495 6.83738ZM13.4495 9.13738C13.4495 8.69555 13.8077 8.33738 14.2495 8.33738H17.2495C17.6914 8.33738 18.0495 8.69555 18.0495 9.13738C18.0495 9.57921 17.6914 9.93738 17.2495 9.93738H14.2495C13.8077 9.93738 13.4495 9.57921 13.4495 9.13738Z" fill="#777E90"/>
</svg>
