<svg width="22" height="22" viewBox="0 0 22 22" fill="none" xmlns="http://www.w3.org/2000/svg">
<path fill-rule="evenodd" clip-rule="evenodd" d="M1.5221 1.27207C2.33661 0.457558 3.44133 -3.05176e-05 4.59322 -3.05176e-05H9.08836C9.93853 0.00029812 10.7541 0.338138 11.3553 0.939251L20.8104 10.3931C21.1083 10.691 21.3446 11.0446 21.5058 11.4338C21.667 11.823 21.75 12.2401 21.75 12.6614C21.75 13.0826 21.667 13.4997 21.5058 13.8889C21.3446 14.2781 21.1083 14.6317 20.8104 14.9295M20.8104 14.9295L15.1796 20.5603C15.1796 20.5604 15.1796 20.5603 15.1796 20.5603C14.8818 20.8582 14.5281 21.0946 14.139 21.2558C13.7498 21.417 13.3326 21.5 12.9114 21.5C12.4901 21.5 12.073 21.417 11.6838 21.2558C11.2947 21.0946 10.9411 20.8583 10.6432 20.5604C10.6432 20.5604 10.6432 20.5604 10.6432 20.5604L1.18933 11.1065C0.587347 10.5045 0.25 9.68868 0.25 8.83833V4.34319C0.25 3.1913 0.707588 2.08658 1.5221 1.27207M4.59322 1.69734C3.8915 1.69734 3.21851 1.9761 2.72232 2.47229C2.22613 2.96848 1.94737 3.64147 1.94737 4.34319V8.83833C1.94737 9.23902 2.10625 9.62298 2.38955 9.90628L11.8434 19.3602C11.9837 19.5004 12.1502 19.6117 12.3334 19.6876C12.5167 19.7635 12.713 19.8026 12.9114 19.8026C13.1097 19.8026 13.3061 19.7635 13.4893 19.6876C13.6726 19.6117 13.8391 19.5005 13.9793 19.3602L19.6102 13.7293C19.7505 13.5891 19.8618 13.4225 19.9377 13.2393C20.0136 13.0561 20.0526 12.8597 20.0526 12.6614C20.0526 12.463 20.0136 12.2666 19.9377 12.0834C19.8618 11.9002 19.7505 11.7337 19.6102 11.5935L10.1552 2.13956C10.1552 2.13956 10.1552 2.13957 10.1552 2.13956C9.87222 1.85663 9.48851 1.69758 9.08836 1.69734H4.59322ZM6.34049 5.7743C6.16588 5.7743 6.02433 5.91585 6.02433 6.09046C6.02433 6.26507 6.16588 6.40662 6.34049 6.40662C6.5151 6.40662 6.65665 6.26507 6.65665 6.09046C6.65665 5.91585 6.5151 5.7743 6.34049 5.7743ZM4.32696 6.09046C4.32696 4.97842 5.22845 4.07693 6.34049 4.07693C7.45253 4.07693 8.35402 4.97842 8.35402 6.09046C8.35402 7.2025 7.45253 8.10399 6.34049 8.10399C5.22845 8.10399 4.32696 7.2025 4.32696 6.09046Z" fill="#777E90"/>
</svg>
