<svg width="22" height="22" viewBox="0 0 22 22" fill="none" xmlns="http://www.w3.org/2000/svg">
<path fill-rule="evenodd" clip-rule="evenodd" d="M0.25 0.848669C0.25 0.379954 0.629969 -1.52588e-05 1.09868 -1.52588e-05H8.52467C8.99339 -1.52588e-05 9.37335 0.379954 9.37335 0.848669V8.27466C9.37335 8.74337 8.99339 9.12334 8.52467 9.12334H1.09868C0.629969 9.12334 0.25 8.74337 0.25 8.27466V0.848669ZM1.94737 1.69735V7.42597H7.67599V1.69735H1.94737ZM12.6266 0.848669C12.6266 0.379954 13.0066 -1.52588e-05 13.4753 -1.52588e-05H20.9013C21.37 -1.52588e-05 21.75 0.379954 21.75 0.848669V8.27466C21.75 8.74337 21.37 9.12334 20.9013 9.12334H13.4753C13.0066 9.12334 12.6266 8.74337 12.6266 8.27466V0.848669ZM14.324 1.69735V7.42597H20.0526V1.69735H14.324ZM0.25 13.2253C0.25 12.7566 0.629969 12.3766 1.09868 12.3766H8.52467C8.99339 12.3766 9.37335 12.7566 9.37335 13.2253V20.6513C9.37335 21.12 8.99339 21.5 8.52467 21.5H1.09868C0.629969 21.5 0.25 21.12 0.25 20.6513V13.2253ZM1.94737 14.074V19.8026H7.67599V14.074H1.94737ZM13.9627 13.7127C14.8182 12.8572 15.9785 12.3766 17.1883 12.3766C18.3982 12.3766 19.5584 12.8572 20.4139 13.7127C21.2694 14.5682 21.75 15.7285 21.75 16.9383C21.75 18.1481 21.2694 19.3084 20.4139 20.1639C19.5584 21.0194 18.3982 21.5 17.1883 21.5C15.9785 21.5 14.8182 21.0194 13.9627 20.1639C13.1072 19.3084 12.6266 18.1481 12.6266 16.9383C12.6266 15.7285 13.1072 14.5682 13.9627 13.7127ZM17.1883 14.074C16.4287 14.074 15.7001 14.3758 15.163 14.9129C14.6258 15.4501 14.324 16.1786 14.324 16.9383C14.324 17.698 14.6258 18.4265 15.163 18.9637C15.7001 19.5008 16.4287 19.8026 17.1883 19.8026C17.948 19.8026 18.6765 19.5008 19.2137 18.9637C19.7509 18.4265 20.0526 17.698 20.0526 16.9383C20.0526 16.1786 19.7509 15.4501 19.2137 14.9129C18.6765 14.3758 17.948 14.074 17.1883 14.074Z" fill="#777E90"/>
</svg>
