<svg width="20" height="23" viewBox="0 0 20 23" fill="none" xmlns="http://www.w3.org/2000/svg">
<path d="M19.3096 17.1243L10 22.5L0.690926 17.1243V6.37473L10 0.999969L19.3096 6.37473V17.1243ZM18.7363 16.7937V6.70631L10 1.66117L1.26328 6.70581L1.26423 16.7937L10 21.8373L18.7363 16.7937Z" fill="#777E90"/>
<path d="M4.83212 8.75444V14.7445L9.99953 17.7401L15.1674 14.7445V8.75491L10 5.75986L4.83212 8.75444ZM5.40447 9.08599L10 6.42299L14.5955 9.08599V14.413L10 17.0765L5.40447 14.413V9.08599Z" fill="#777E90"/>
<path fill-rule="evenodd" clip-rule="evenodd" d="M9.71236 17.4821V22.2596H10.2866V17.4821H9.71236ZM9.71236 1.23931V6.01688H10.2866V1.23931H9.71236ZM15.1077 14.3681L14.821 14.865L18.9589 17.2537L19.2455 16.7569L15.1077 14.3681ZM1.04109 6.24622L0.754431 6.74308L4.8918 9.13186L5.17846 8.635L1.04109 6.24622ZM18.9589 6.24622L14.8215 8.635L15.1081 9.13186L19.2455 6.74308L18.9589 6.24622ZM4.89228 14.3681L0.754909 16.7569L1.04109 17.2537L5.17846 14.865L4.89228 14.3681Z" fill="#777E90"/>
<path fill-rule="evenodd" clip-rule="evenodd" d="M19.7096 17.3552L19.1886 17.656L19.1054 17.8002L19.0221 17.7521L10.6866 22.5654V22.6596H10.5234L10 22.9619L9.47663 22.6596H9.31236V22.5648L0.978084 17.752L0.894309 17.8004L0.810824 17.6554L0.290924 17.3552V16.7527L0.208867 16.6102L0.290924 16.5629V6.93735L0.20813 6.88954L0.290924 6.74604V6.14379L0.811931 5.84298L0.894569 5.69974L0.977292 5.7475L9.31236 0.935107V0.839311H9.47828L10 0.538086L10.5218 0.839311H10.6866V0.934499L19.0229 5.74735L19.1054 5.69974L19.1877 5.84252L19.7096 6.14378V6.74699L19.7918 6.88954L19.7096 6.93703V16.5629L19.7918 16.6104L19.7096 16.7529V17.3552ZM10 0.999969L0.690926 6.37473V17.1243L10 22.5L19.3096 17.1243V6.37473L10 0.999969ZM18.4492 6.5405L10.2866 1.82669V5.92598L14.8912 8.59478L18.4492 6.5405ZM14.8915 8.13267L17.6492 6.54047L10.6866 2.51959V5.69549L14.8915 8.13267ZM9.71236 1.82726L1.55018 6.54015L5.10822 8.59445L9.71236 5.92654V1.82726ZM9.31236 5.69602V2.52011L2.35014 6.54014L5.10786 8.13236L9.31236 5.69602ZM1.26331 7.03688L1.2642 16.4628L4.83212 14.4028V9.09742L1.26331 7.03688ZM4.43212 9.32833L1.66337 7.72975L1.66414 15.77L4.43212 14.1719V9.32833ZM1.5511 16.9593L9.71236 21.6713V17.5736L5.10902 14.9051L1.5511 16.9593ZM5.10862 15.3672L2.35108 16.9593L9.31236 20.9784V17.8041L5.10862 15.3672ZM10.2866 21.6719L18.4491 16.9595L14.8905 14.9051L10.2866 17.5737V21.6719ZM10.6866 17.8041V20.9791L17.649 16.9595L14.8909 15.3672L10.6866 17.8041ZM18.7363 16.4629V7.0371L15.1674 9.09763V14.4026L18.7363 16.4629ZM15.5674 14.1716L18.3363 15.7701V7.72993L15.5674 9.32857V14.1716ZM5.80447 9.3165V14.1825L10 16.6141L14.1955 14.1825V9.3165L10 6.88529L5.80447 9.3165ZM10 6.42299L5.40447 9.08599V14.413L10 17.0765L14.5955 14.413V9.08599L10 6.42299Z" fill="#777E90"/>
</svg>
