<svg width="24" height="24" viewBox="0 0 24 24" fill="none" xmlns="http://www.w3.org/2000/svg">
<path d="M10.1098 17.9H6.31982C5.90982 17.9 5.56982 17.56 5.56982 17.15V12.03C5.56982 10.99 6.41981 10.14 7.45981 10.14H10.1098C10.5198 10.14 10.8598 10.48 10.8598 10.89V17.14C10.8598 17.56 10.5198 17.9 10.1098 17.9ZM7.06982 16.4H9.3598V11.65H7.45981C7.24981 11.65 7.06982 11.82 7.06982 12.04V16.4Z" fill="#777E90"/>
<path d="M13.8901 17.9H10.1001C9.6901 17.9 9.3501 17.56 9.3501 17.15V7.48997C9.3501 6.44998 10.2001 5.59996 11.2401 5.59996H12.7601C13.8001 5.59996 14.6501 6.44998 14.6501 7.48997V17.15C14.6401 17.56 14.3101 17.9 13.8901 17.9ZM13.1501 16.4V7.48997C13.1501 7.27997 12.9801 7.09996 12.7601 7.09996H11.2401C11.0301 7.09996 10.8501 7.26998 10.8501 7.48997V16.4H13.1501Z" fill="#777E90"/>
<path d="M17.6801 17.9H13.8901C13.4801 17.9 13.1401 17.56 13.1401 17.15V12.6C13.1401 12.19 13.4801 11.85 13.8901 11.85H16.5401C17.5801 11.85 18.4301 12.7 18.4301 13.74V17.15C18.4301 17.56 18.1001 17.9 17.6801 17.9ZM14.6401 16.4H16.9301V13.74C16.9301 13.53 16.7601 13.35 16.5401 13.35H14.6401V16.4Z" fill="#777E90"/>
<path d="M15 22.5H9C3.57 22.5 1.25 20.18 1.25 14.75V8.74998C1.25 3.31998 3.57 0.999985 9 0.999985H15C20.43 0.999985 22.75 3.31998 22.75 8.74998V14.75C22.75 20.18 20.43 22.5 15 22.5ZM9 2.49998C4.39 2.49998 2.75 4.13998 2.75 8.74998V14.75C2.75 19.36 4.39 21 9 21H15C19.61 21 21.25 19.36 21.25 14.75V8.74998C21.25 4.13998 19.61 2.49998 15 2.49998H9Z" fill="#777E90"/>
</svg>
