<svg width="24" height="24" viewBox="0 0 24 24" fill="none" xmlns="http://www.w3.org/2000/svg">
<path fill-rule="evenodd" clip-rule="evenodd" d="M12 2.49998C6.89137 2.49998 2.75 6.64135 2.75 11.75C2.75 16.8586 6.89137 21 12 21C17.1086 21 21.25 16.8586 21.25 11.75C21.25 6.64135 17.1086 2.49998 12 2.49998ZM1.25 11.75C1.25 5.81292 6.06294 0.999985 12 0.999985C17.9371 0.999985 22.75 5.81292 22.75 11.75C22.75 17.687 17.9371 22.5 12 22.5C6.06294 22.5 1.25 17.687 1.25 11.75ZM8.15752 12.346C8.15752 14.468 9.87776 16.1882 11.9998 16.1882C14.1218 16.1882 15.842 14.468 15.842 12.346H17.342C17.342 15.2964 14.9502 17.6882 11.9998 17.6882C9.04933 17.6882 6.65752 15.2964 6.65752 12.346H8.15752Z" fill="#A49BFF"/>
</svg>
