<svg width="24" height="24" viewBox="0 0 24 24" fill="none" xmlns="http://www.w3.org/2000/svg">
<path d="M12 20C7.45 20 3.75 16.3 3.75 11.75C3.75 7.19998 7.45 3.49998 12 3.49998C16.55 3.49998 20.25 7.19998 20.25 11.75C20.25 16.3 16.55 20 12 20ZM12 4.99998C8.28 4.99998 5.25 8.02998 5.25 11.75C5.25 15.47 8.28 18.5 12 18.5C15.72 18.5 18.75 15.47 18.75 11.75C18.75 8.02998 15.72 4.99998 12 4.99998Z" fill="#777E90"/>
<path d="M12 15.5C9.93 15.5 8.25 13.82 8.25 11.75C8.25 9.67998 9.93 7.99998 12 7.99998C14.07 7.99998 15.75 9.67998 15.75 11.75C15.75 13.82 14.07 15.5 12 15.5ZM12 9.49998C10.76 9.49998 9.75 10.51 9.75 11.75C9.75 12.99 10.76 14 12 14C13.24 14 14.25 12.99 14.25 11.75C14.25 10.51 13.24 9.49998 12 9.49998Z" fill="#777E90"/>
<path d="M12 4.49998C11.59 4.49998 11.25 4.15998 11.25 3.74998V1.74998C11.25 1.33998 11.59 0.999984 12 0.999984C12.41 0.999984 12.75 1.33998 12.75 1.74998V3.74998C12.75 4.15998 12.41 4.49998 12 4.49998Z" fill="#777E90"/>
<path d="M4 12.5H2C1.59 12.5 1.25 12.16 1.25 11.75C1.25 11.34 1.59 11 2 11H4C4.41 11 4.75 11.34 4.75 11.75C4.75 12.16 4.41 12.5 4 12.5Z" fill="#777E90"/>
<path d="M12 22.5C11.59 22.5 11.25 22.16 11.25 21.75V19.75C11.25 19.34 11.59 19 12 19C12.41 19 12.75 19.34 12.75 19.75V21.75C12.75 22.16 12.41 22.5 12 22.5Z" fill="#777E90"/>
<path d="M22 12.5H20C19.59 12.5 19.25 12.16 19.25 11.75C19.25 11.34 19.59 11 20 11H22C22.41 11 22.75 11.34 22.75 11.75C22.75 12.16 22.41 12.5 22 12.5Z" fill="#777E90"/>
</svg>
