<svg width="24" height="24" viewBox="0 0 24 24" fill="none" xmlns="http://www.w3.org/2000/svg">
<path d="M12.005 11.9962C11.565 11.9962 11.125 11.8862 10.725 11.6762L4.215 8.16623C3.62501 7.84623 3.255 7.21623 3.255 6.51623C3.255 5.81623 3.62501 5.18623 4.215 4.86623L10.725 1.35623C11.525 0.926233 12.485 0.926233 13.275 1.35623L19.785 4.86623C20.375 5.18623 20.745 5.81623 20.745 6.51623C20.745 7.21623 20.375 7.84623 19.785 8.16623L13.275 11.6762C12.885 11.8962 12.445 11.9962 12.005 11.9962ZM12.005 2.52623C11.815 2.52623 11.615 2.57623 11.435 2.67623L4.935 6.17623C4.765 6.26623 4.755 6.45623 4.755 6.51623C4.755 6.57623 4.765 6.76623 4.935 6.84623L11.445 10.3562C11.805 10.5462 12.215 10.5462 12.575 10.3562L19.085 6.84623C19.245 6.75623 19.265 6.56623 19.265 6.51623C19.265 6.45623 19.255 6.26623 19.085 6.18623L12.575 2.67623C12.395 2.57623 12.195 2.52623 12.005 2.52623Z" fill="#777E90"/>
<path d="M9.785 22.4662C9.505 22.4662 9.215 22.3962 8.955 22.2662L2.895 19.2462C1.885 18.7362 1.255 17.7162 1.255 16.5862V10.8662C1.255 10.2162 1.585 9.62623 2.135 9.28623C2.695 8.94623 3.36501 8.91623 3.945 9.20623L10.005 12.2262C11.015 12.7362 11.645 13.7462 11.645 14.8862V20.6062C11.645 21.2562 11.315 21.8462 10.765 22.1862C10.465 22.3762 10.125 22.4662 9.785 22.4662ZM3.115 10.5062C3.035 10.5062 2.965 10.5362 2.925 10.5562C2.86501 10.5962 2.755 10.6862 2.755 10.8662V16.5862C2.755 17.1462 3.065 17.6562 3.565 17.9062L9.615 20.9362C9.775 21.0162 9.905 20.9562 9.965 20.9262C10.025 20.8862 10.135 20.7962 10.135 20.6162V14.8962C10.135 14.3362 9.825 13.8262 9.325 13.5762L3.275 10.5462C3.215 10.5162 3.165 10.5062 3.115 10.5062Z" fill="#777E90"/>
<path d="M14.225 22.4662C13.885 22.4662 13.545 22.3762 13.245 22.1862C12.695 21.8462 12.365 21.2562 12.365 20.6062V14.8862C12.365 13.7562 12.995 12.7362 14.005 12.2262L20.055 9.19623C20.635 8.90623 21.315 8.93623 21.865 9.27623C22.415 9.61623 22.745 10.2062 22.745 10.8562V16.5762C22.745 17.7062 22.115 18.7262 21.105 19.2362L15.055 22.2662C14.795 22.4062 14.505 22.4662 14.225 22.4662ZM20.895 10.5062C20.845 10.5062 20.795 10.5162 20.735 10.5462L14.685 13.5762C14.185 13.8262 13.875 14.3262 13.875 14.8962V20.6162C13.875 20.7962 13.985 20.8862 14.045 20.9262C14.105 20.9662 14.235 21.0162 14.395 20.9362L20.445 17.9062C20.945 17.6562 21.255 17.1462 21.255 16.5862V10.8662C21.255 10.6862 21.145 10.5962 21.085 10.5562C21.045 10.5362 20.975 10.5062 20.895 10.5062Z" fill="#777E90"/>
</svg>
