<svg width="24" height="24" viewBox="0 0 24 24" fill="none" xmlns="http://www.w3.org/2000/svg">
<path fill-rule="evenodd" clip-rule="evenodd" d="M2.58891 2.75H8.70346C9.96103 2.75 11.1493 3.29808 12.0003 4.2421C12.8514 3.29804 14.0397 2.75 15.2972 2.75H21.4118C21.7306 2.75 21.99 3.01739 21.9995 3.35156L22 3.99135C22 5.47295 21.4422 6.89356 20.4494 7.94125C19.4565 8.98895 18.1102 9.57742 16.7061 9.57742H14.3622C14.4134 11.3582 14.6909 13.1247 15.188 14.829C15.8597 17.1336 16.6803 19.9466 16.6803 19.9466C16.7756 20.2736 16.6015 20.6213 16.2909 20.7225C15.981 20.8231 15.6515 20.6393 15.5556 20.3116C15.5556 20.3116 14.7355 17.4986 14.0633 15.194C13.4756 13.1788 13.1767 11.0814 13.1767 8.97228V8.95677C13.1767 8.61429 13.4404 8.33609 13.7649 8.33609H16.706C17.7984 8.33609 18.8454 7.87862 19.6176 7.06367C20.3894 6.24878 20.8235 5.14405 20.8235 3.99137H15.2972C14.1691 3.99137 13.1155 4.586 12.4895 5.57661C12.2846 5.90135 12 5.85341 12 5.85341C12 5.85341 11.7153 5.90107 11.5105 5.57661C10.8848 4.58601 9.83126 3.99137 8.70282 3.99137H3.1765C3.1765 5.14405 3.61057 6.24878 4.38237 7.06367C5.15465 7.87857 6.2016 8.33609 7.294 8.33609H10.2351C10.5596 8.33609 10.8233 8.61429 10.8233 8.95677V8.97228C10.8233 11.0814 10.5245 13.1785 9.93673 15.194C9.26449 17.4985 8.44441 20.3116 8.44441 20.3116C8.34857 20.6393 8.01901 20.8231 7.70911 20.7225C7.39846 20.6213 7.22436 20.2736 7.31968 19.9466C7.31968 19.9466 8.14029 17.1336 8.812 14.829C9.30909 13.1247 9.58663 11.3582 9.63785 9.57742H7.29393C5.88982 9.57742 4.54351 8.98889 3.5506 7.94125C2.5577 6.89356 2 5.47295 2 3.99135V3.37761V3.37068C2 3.0282 2.26435 2.75 2.58891 2.75Z" fill="#777E90" stroke="#777E90" stroke-width="0.75" stroke-linecap="round"/>
</svg>
