<svg width="24" height="24" viewBox="0 0 24 24" fill="none" xmlns="http://www.w3.org/2000/svg">
<path fill-rule="evenodd" clip-rule="evenodd" d="M15.2937 1.80362C14.9508 1.74529 14.6334 1.82661 14.3663 1.92149C14.1067 2.01371 13.7971 2.15661 13.445 2.31913L4.54478 6.42694L4.44284 6.47391C3.86944 6.73798 3.41926 6.94529 3.07796 7.27886C2.77814 7.57187 2.54928 7.92958 2.40887 8.32457C2.24904 8.77425 2.24946 9.26984 2.25 9.90111L2.25006 10.0133V11.0761V11.1355V17.7964C2.25005 18.3305 2.25004 18.7764 2.2798 19.1406C2.31084 19.5205 2.37796 19.8771 2.54977 20.2144C2.81345 20.7319 3.23418 21.1525 3.75152 21.4162C4.08879 21.588 4.4455 21.6552 4.82539 21.6862C5.18962 21.716 5.63546 21.716 6.16961 21.7159H17.8305C18.3647 21.716 18.8105 21.716 19.1748 21.6862C19.5546 21.6552 19.9113 21.588 20.2486 21.4162C20.7658 21.1525 21.1571 20.8098 21.4503 20.2144C21.6414 19.8265 21.6893 19.5205 21.7203 19.1406C21.7501 18.7764 21.7501 18.3305 21.7501 17.7964V11.1355C21.7501 10.6013 21.7501 10.1555 21.7203 9.79126C21.6893 9.41137 21.6222 9.0547 21.4503 8.71743C21.1867 8.19994 20.7659 7.77928 20.2486 7.51566C19.9113 7.3438 19.5546 7.27669 19.1747 7.24565C18.8105 7.21589 18.3646 7.2159 17.8305 7.21591H16.7501L16.7501 4.43377C16.7501 4.04602 16.7501 3.70506 16.7251 3.43073C16.6993 3.1485 16.6401 2.82611 16.4434 2.53929C16.1755 2.14854 15.7606 1.88311 15.2937 1.80362ZM6.20006 8.71591C5.62764 8.71591 5.24342 8.7165 4.94754 8.74067C4.66042 8.76413 4.52314 8.80601 4.43258 8.85216C4.19737 8.97201 4.00614 9.16324 3.88631 9.39842C3.84017 9.48897 3.79828 9.62627 3.77482 9.91341C3.75065 10.2093 3.75006 10.5935 3.75006 11.1659V17.7659C3.75006 18.3384 3.75065 18.7226 3.77482 19.0184C3.79828 19.3055 3.84016 19.4429 3.88633 19.5335C4.00613 19.7686 4.19731 19.9598 4.43259 20.0797C4.52315 20.1258 4.66048 20.1677 4.94754 20.1912C5.24342 20.2154 5.62763 20.2159 6.20006 20.2159H17.8001C18.3725 20.2159 18.7567 20.2154 19.0526 20.1912C19.3397 20.1677 19.477 20.1258 19.5675 20.0797C19.8029 19.9597 19.9941 19.7685 20.1138 19.5335C20.16 19.4429 20.2018 19.3055 20.2253 19.0184C20.2495 18.7226 20.2501 18.3384 20.2501 17.7659V11.1659C20.2501 10.5935 20.2495 10.2093 20.2253 9.91341C20.2018 9.62628 20.1599 9.48892 20.1138 9.39836C19.994 9.16325 19.8028 8.97201 19.5676 8.85215C19.477 8.80602 19.3397 8.76413 19.0526 8.74067C18.7567 8.7165 18.3725 8.71591 17.8001 8.71591H6.20006ZM6.41478 7.21591H15.2501V4.46657C15.2501 4.03617 15.2493 3.76483 15.2313 3.56711C15.2201 3.44504 15.205 3.3933 15.2002 3.37896C15.1639 3.33058 15.1114 3.29696 15.0523 3.28434C15.0373 3.28594 14.9839 3.2939 14.8684 3.33494C14.6813 3.40141 14.4346 3.51444 14.0439 3.69481L6.41478 7.21591Z" fill="#777E90"/>
<path d="M15.2499 15.034C15.2499 14.3435 15.8097 13.784 16.4999 13.784C17.1902 13.784 17.7499 14.3435 17.7499 15.034C17.7499 15.7243 17.1903 16.284 16.4999 16.284C15.8096 16.284 15.2499 15.7243 15.2499 15.034Z" fill="#777E90"/>
</svg>
